<svg xmlns="http://www.w3.org/2000/svg" viewBox="0 0 144 144"><defs><style>.cls-1{fill:#f66560;}.cls-2{fill:#fff;}</style></defs><g id="Shipped"><g id="Shipped-2" data-name="Shipped"><circle class="cls-1" cx="72" cy="72" r="72"/><path class="cls-2" d="M57,90.46a.13.13,0,0,1,0,.06v-.13A.17.17,0,0,1,57,90.46Z"/><path class="cls-2" d="M58,90.45s0,0,0,0v-.06S58,90.44,58,90.45Z"/><path class="cls-2" d="M121.09,75.68l-8.43-15.13a4.52,4.52,0,0,0-3.89-2.28h-11V47.83a3.35,3.35,0,0,0-3.33-3.33H42.27a3.35,3.35,0,0,0-3.33,3.33v4.65H32.72a2.06,2.06,0,1,0,0,4.12h19a2.06,2.06,0,0,0,0-4.12H43.06V48.62H93.65V88.4H71.73a9.07,9.07,0,0,0-8.81-7h0a9.07,9.07,0,0,0-8.8,7h-11V80.53h4.1a2.06,2.06,0,0,0,0-4.12H27.38a2.06,2.06,0,1,0,0,4.12H38.94v9.93A2.07,2.07,0,0,0,41,92.52H54.11a9.07,9.07,0,0,0,8.81,7h0a9,9,0,0,0,8.79-7H99.15a9,9,0,0,0,17.61,0h2.45a3.19,3.19,0,0,0,3.17-3.18V80.63A10.21,10.21,0,0,0,121.09,75.68ZM67.85,90.47a4.94,4.94,0,0,1-4.93,4.92h0A4.92,4.92,0,0,1,58,90.56v-.07s0,0,0,0,0,0,0,0v-.07a4.92,4.92,0,0,1,4.92-4.83h0a5,5,0,0,1,4.92,4.93ZM57,90.46a.13.13,0,0,1,0,.06v-.13A.17.17,0,0,1,57,90.46ZM111.43,94A4.91,4.91,0,0,1,103,90.56a.41.41,0,0,1,0-.11.28.28,0,0,1,0-.09A4.92,4.92,0,1,1,111.43,94Zm6.83-5.55h-1.49a9.07,9.07,0,0,0-8.81-7h0a9.08,9.08,0,0,0-8.81,7H97.77v-26h11a.32.32,0,0,1,.29.17l8.44,15.13a6.07,6.07,0,0,1,.76,2.94Z"/><path class="cls-2" d="M65,71.38a2.06,2.06,0,0,1-2.06,2.06H35.32a2.06,2.06,0,1,1,0-4.12h3.62v-8.4a2.06,2.06,0,0,1,4.12,0v8.4H62.93A2.07,2.07,0,0,1,65,71.38Z"/><path class="cls-2" d="M36.52,63.15a2.06,2.06,0,0,1-2.06,2.06H23.68a2.06,2.06,0,0,1,0-4.12H34.46A2.06,2.06,0,0,1,36.52,63.15Z"/></g></g></svg>