<svg xmlns="http://www.w3.org/2000/svg" viewBox="0 0 144 144"><defs><style>.cls-1{fill:#f66560;}.cls-2{fill:#fff;}</style></defs><g id="In_Production" data-name="In Production"><g id="In-Production"><circle class="cls-1" cx="72" cy="72" r="72"/><path class="cls-2" d="M72.06,53.14l-.06,0L53.43,62.4l-.06,0V85.69L71.94,95,72,95l18.57-9.28.06,0V62.43ZM69.82,89,57.73,83V67.31l12.09,6Zm-9.4-25.26L72,58l11.58,5.79L72,69.57ZM86.27,83,74.18,89V73.35l12.09-6Z"/><path class="cls-2" d="M107.22,72a35.07,35.07,0,0,1-57.8,26.87v1.19a2,2,0,0,1-2,2,2.41,2.41,0,0,1-2.4-2.4V93.27a1.78,1.78,0,0,1,1.78-1.78h6.34a2.42,2.42,0,0,1,2.42,2.42,1.95,1.95,0,0,1-2,2h-1A30.72,30.72,0,0,0,102.86,72a30.05,30.05,0,0,0-2.64-12.19,1.33,1.33,0,0,1-.11-.24,2.15,2.15,0,0,1-.15-.8,2.18,2.18,0,0,1,1-1.81l.07,0,.3-.16h0a2.1,2.1,0,0,1,.84-.17,2.15,2.15,0,0,1,1.91,1.14,1.23,1.23,0,0,1,.12.26A34.31,34.31,0,0,1,107.22,72Z"/><path class="cls-2" d="M98.78,43.94v6.67a1.72,1.72,0,0,1-1.72,1.72H90.57A2.33,2.33,0,0,1,88.24,50a2,2,0,0,1,2-2h.88a30.7,30.7,0,0,0-50,24,30.06,30.06,0,0,0,2.63,12.18v0a2,2,0,0,1,.15.78,2.17,2.17,0,0,1-1.14,1.92l-.2.1a2.14,2.14,0,0,1-.84.17A2.19,2.19,0,0,1,39.82,86a1.33,1.33,0,0,1-.11-.24.06.06,0,0,1,0,0A34.34,34.34,0,0,1,36.77,72,35.08,35.08,0,0,1,94.41,45V44a2.23,2.23,0,0,1,2.23-2.23,2.15,2.15,0,0,1,2.14,2.14Z"/></g></g></svg>