<svg xmlns="http://www.w3.org/2000/svg" viewBox="0 0 144 144"><defs><style>.cls-1{fill:#f66560;}.cls-2{fill:#fff;}</style></defs><g id="Arriving_to_DC" data-name="Arriving to DC"><g id="Arrival"><circle class="cls-1" cx="72" cy="72" r="72"/><path class="cls-2" d="M72,35.5A25.84,25.84,0,0,0,46.19,61.31c0,5.76,2,12.26,6.15,19.85A187.09,187.09,0,0,0,64.47,99.68c1.94,2.71,3.77,5.27,5.36,7.66a2.61,2.61,0,0,0,4.34,0c1.6-2.39,3.43-5,5.37-7.67A187.48,187.48,0,0,0,91.66,81.16c4.14-7.59,6.15-14.09,6.15-19.85A25.84,25.84,0,0,0,72,35.5ZM87.08,78.66a183,183,0,0,1-11.83,18c-1.12,1.57-2.22,3.1-3.25,4.58-1-1.47-2.12-3-3.24-4.58a183.7,183.7,0,0,1-11.84-18c-3.71-6.81-5.51-12.48-5.51-17.35a20.6,20.6,0,0,1,41.19,0C92.6,66.18,90.79,71.85,87.08,78.66Z"/><path class="cls-2" d="M72,48.16A13.16,13.16,0,1,0,85.16,61.31,13.17,13.17,0,0,0,72,48.16Zm0,21.09a7.94,7.94,0,1,1,7.94-7.94A7.95,7.95,0,0,1,72,69.25Z"/></g></g></svg>