<svg xmlns="http://www.w3.org/2000/svg" viewBox="0 0 144 144"><defs><style>.cls-1{fill:#f66560;}.cls-2{fill:#fff;}</style></defs><g id="En-Route"><g id="En-Route-2" data-name="En-Route"><circle class="cls-1" cx="72" cy="72" r="72"/><path class="cls-2" d="M89.27,58.82a3.5,3.5,0,0,0,4.33,0h0l9.2-7.63a2.25,2.25,0,0,0,0-3.6l-8.93-7.42a3.53,3.53,0,0,0-4.34,0,2.26,2.26,0,0,0,0,3.6l0,0,3.7,3.07h-34c-10.45,0-18.92,7-18.93,15.71s8.47,15.71,18.92,15.71H81.44c7.06,0,12.77,4.79,12.74,10.65S88.47,99.48,81.44,99.5H43.37a2.59,2.59,0,1,0,0,5.09H81.44c10.45,0,18.89-7.08,18.86-15.76S91.85,73.19,81.44,73.17H59.23c-7.07,0-12.79-4.76-12.79-10.62s5.72-10.62,12.79-10.62h34l-4,3.29a2.25,2.25,0,0,0,0,3.6Z"/></g></g></svg>