<?xml version="1.0" encoding="UTF-8"?><svg id="Layer_1" xmlns="http://www.w3.org/2000/svg" viewBox="0 0 24 24"><defs><style>.cls-1{fill:none;stroke:#000;stroke-dasharray:0 0 0 0;stroke-linecap:round;stroke-linejoin:round;stroke-width:1.5px;}</style></defs><g id="Group"><path id="Vector" class="cls-1" d="M20.12,19.49H3.88c-1.03,0-1.87-.84-1.87-1.87,0-1.03,.84-1.87,1.87-1.87h.62v-6.25c0-4.14,3.35-7.5,7.49-7.5,1.99,0,3.9,.79,5.31,2.2,1.41,1.4,2.21,3.31,2.2,5.3v6.25h.62c1.03,0,1.87,.84,1.87,1.87,0,1.03-.84,1.87-1.87,1.87,0,0,0,0,0,0Z"/><path id="Vector-2" class="cls-1" d="M12,2.01V.76"/><path id="Vector-3" class="cls-1" d="M12,23.24c-2.07,0-3.74-1.68-3.74-3.74h7.49c0,2.06-1.67,3.74-3.73,3.74,0,0,0,0-.01,0Z"/></g></svg>