<?xml version="1.0" encoding="UTF-8"?><svg id="Layer_1" xmlns="http://www.w3.org/2000/svg" viewBox="0 0 24 24"><defs><style>.cls-1{fill:none;}.cls-1,.cls-2{stroke:#000;stroke-dasharray:0 0 0 0;stroke-linecap:round;stroke-linejoin:round;stroke-width:1.5px;}</style></defs><path id="Vector-2" class="cls-1" d="M.76,6.14v12.18c0,2,1.62,3.62,3.62,3.62h15.23c2,0,3.62-1.62,3.62-3.62V9.78c.01-2-1.6-3.62-3.6-3.64,0,0,0,0-.01,0H.76Z"/><g id="Group"><path id="Vector-3" class="cls-1" d="M8.34,2.06h6.24c2.16,.1,3.83,1.93,3.74,4.08"/><path id="Vector-4" class="cls-1" d="M.76,10.61V4.57"/><path id="Vector-5" class="cls-1" d="M11.37,6.14H2.63c-1.08-.05-1.92-.96-1.87-2.04-.05-1.08,.79-1.99,1.87-2.04H11.37"/></g><path id="Vector-6" class="cls-2" d="M18.95,14.66c-.34,0-.62-.28-.62-.62s.28-.62,.62-.62,.62,.28,.62,.62-.28,.62-.62,.62h0Z"/></svg>