<?xml version="1.0" encoding="UTF-8"?><svg id="Layer_1" xmlns="http://www.w3.org/2000/svg" viewBox="0 0 24 24"><defs><style>.cls-1{fill:none;stroke:#000;stroke-dasharray:0 0 0 0;stroke-linecap:round;stroke-linejoin:round;stroke-width:1.5px;}</style></defs><g id="Group"><path id="Vector" class="cls-1" d="M12.01,15.12c-1.73,0-3.12-1.4-3.12-3.12s1.4-3.12,3.12-3.12,3.12,1.4,3.12,3.12h0c0,1.73-1.4,3.12-3.12,3.12Z"/><path id="Vector-2" class="cls-1" d="M21.12,5.3c-.52-.9-1.66-1.2-2.55-.69,0,0,0,0,0,0l-.62,.35c-.9,.52-2.04,.21-2.56-.69-.16-.29-.25-.61-.25-.94v-.72c0-1.03-.84-1.87-1.87-1.87h-2.5c-1.03,0-1.87,.84-1.87,1.87v.72c0,1.04-.84,1.88-1.87,1.88-.33,0-.65-.09-.94-.25l-.62-.35c-.9-.52-2.04-.21-2.56,.68l-1.25,2.16c-.52,.9-.21,2.04,.68,2.56l.62,.35c.9,.52,1.2,1.66,.69,2.56-.16,.29-.4,.52-.69,.69l-.62,.35c-.9,.52-1.2,1.66-.69,2.55,0,0,0,0,0,0l1.25,2.16c.52,.9,1.66,1.2,2.55,.69,0,0,0,0,0,0l.62-.35c.9-.52,2.04-.21,2.56,.69,.16,.29,.25,.61,.25,.94v.72c0,1.03,.84,1.87,1.87,1.87h2.5c1.03,0,1.87-.84,1.87-1.87v-.72c0-1.04,.84-1.88,1.87-1.88,.33,0,.65,.09,.94,.25l.62,.35c.9,.52,2.04,.21,2.56-.68l1.25-2.16c.52-.9,.21-2.04-.68-2.56l-.62-.35c-.9-.52-1.2-1.66-.69-2.56,.16-.29,.4-.52,.69-.69l.62-.35c.9-.52,1.2-1.67,.68-2.56,0,0,0,0,0,0l-1.25-2.16Z"/></g></svg>