<?xml version="1.0" encoding="UTF-8"?><svg id="Layer_1" xmlns="http://www.w3.org/2000/svg" viewBox="0 0 24 24"><defs><style>.cls-1{fill:none;stroke:#000;stroke-dasharray:0 0 0 0;stroke-linecap:round;stroke-linejoin:round;stroke-width:1.5px;}</style></defs><g id="Group"><path id="Vector" class="cls-1" d="M15.06,20.06c-1,.26-2.03,.38-3.06,.38-3.87-.02-7.53-1.79-9.96-4.8-1.7-2.12-1.7-5.14,0-7.27,.19-.24,.41-.47,.63-.7"/><path id="Vector-2" class="cls-1" d="M18.56,18.57L5.43,5.43c1.97-1.22,4.25-1.87,6.57-1.86,3.87,.02,7.53,1.79,9.96,4.8,1.7,2.12,1.7,5.14,0,7.27-.97,1.16-2.11,2.15-3.4,2.94Z"/><path id="Vector-3" class="cls-1" d="M14.65,14.65l-5.3-5.3c.7-.7,1.66-1.1,2.65-1.09,2.06,0,3.74,1.66,3.74,3.72,0,0,0,.02,0,.03,0,.99-.4,1.94-1.09,2.65Z"/><path id="Vector-4" class="cls-1" d="M.76,.76L5.43,5.43l3.93,3.93,5.3,5.3,3.93,3.93,4.67,4.67"/></g></svg>